<?xml version="1.0" encoding="UTF-8"?><svg width="48px" height="48px" viewBox="0 0 48 48" version="1.1" xmlns="http://www.w3.org/2000/svg" xmlns:xlink="http://www.w3.org/1999/xlink">        <title>DS/Logos/OLX-purple</title>    <desc>Created with Sketch.</desc>    <defs>        <polygon id="path-1" points="47.7230025 47.9997207 47.7230025 0.05530273 0.000278057465 0.05530273 0.000278057465 47.9997207 47.7230025 47.9997207"></polygon>    </defs>    <g id="Header" stroke="none" stroke-width="1" fill="none" fill-rule="evenodd" transform="translate(-32.000000, -16.000000)">        <g id="DS/Logos/OLX-purple" transform="translate(32.000000, 16.000000)">            <g id="Logo">                <mask id="mask-2" fill="white">                    <use xlink:href="#path-1"></use>                </mask>                <g id="Clip-2"></g>                <path d="M47.7232806,24.02821 C47.7232806,37.2668026 37.0396177,47.9997207 23.860389,47.9997207 C10.6804652,47.9997207 0.000278057465,37.2668026 0.000278057465,24.02821 C0.000278057465,10.7882208 10.6804652,0.05530273 23.860389,0.05530273 C37.0396177,0.05530273 47.7232806,10.7882208 47.7232806,24.02821 Z M20.4264707,12.5538462 C19.4097963,12.5538462 19.0153072,13.236218 19.1315777,14.2650573 L19.3253618,25.6132742 C19.439556,26.6400009 20.0209083,27.0766062 21.0043626,27.3230769 L27.117559,27.2568819 C28.0857875,27.3230769 28.419373,27.2878668 28.60416,26.2688864 L28.6678319,24.2964163 C28.6498376,23.3915166 28.1695299,23.2394089 27.2483633,23.2450425 L24.9824734,23.2210997 C23.8398393,23.2802526 23.3027805,22.9056171 23.3027805,22.1028267 L23.2370323,14.1995665 C23.2370323,13.166502 22.9601979,12.5538462 21.9414472,12.5538462 L20.4264707,12.5538462 Z M42.3970135,31.4003516 L36.8819329,23.0114165 L41.1076209,16.6943965 C41.6050867,15.9531207 41.4914595,15.1288558 40.8602737,14.8601961 C40.2263166,14.5957561 39.2341564,14.9270093 38.6535486,15.6056916 L34.8948411,19.9907529 L32.2959633,16.0347032 C31.805426,15.2878011 30.7315095,14.8974708 29.9097902,15.1661306 C29.0894566,15.4326804 28.6882969,16.3300883 29.0215574,17.1634961 L32.0472304,23.3968237 L27.6975223,28.3930506 C27.1169146,29.0717329 27.0296156,30.2448335 27.501446,31.0008785 L28.5878337,32.7478701 C29.0610498,33.5074316 29.8550551,33.5186843 30.3490567,32.7781119 L34.0024512,27.3099721 L36.9671534,32.8294526 C37.3011068,33.6614538 38.2717887,34.143916 39.1246862,33.9104212 L41.7408852,33.1867278 C42.592397,32.9483099 42.8875508,32.1458472 42.3970135,31.4003516 Z M11.0260892,15.5076923 C6.96578057,15.5076923 3.67536306,19.3090919 3.67536306,23.9983005 C3.67536306,28.6909081 6.96578057,32.4923077 11.0260892,32.4923077 C15.084317,32.4923077 18.3768153,28.6909081 18.3768153,23.9983005 C18.3768153,19.3090919 15.084317,15.5076923 11.0260892,15.5076923 Z M11.0260892,29.7744973 C9.13673478,29.7744973 7.60388851,27.1892465 7.60388851,23.9983005 C7.60388851,20.8114333 9.13673478,18.2282219 11.0260892,18.2282219 C12.9154436,18.2282219 14.4475963,20.8114333 14.4475963,23.9983005 C14.4475963,27.1892465 12.9154436,29.7744973 11.0260892,29.7744973 Z" id="Combined-Shape" fill="#9027B0" mask="url(#mask-2)"></path>            </g>        </g>    </g></svg>